<svg version="1.2" baseProfile="tiny-ps" xmlns="http://www.w3.org/2000/svg" viewBox="0 0 10 15" width="10" height="15">
	<title>Artboard 1</title>
	<style>
		tspan { white-space:pre }
		.shp0 { fill: #ffffff } 
	</style>
	<g id="Artboard 1">
		<g id="hedder and banner">
			<g id="middide element">
				<g id="middile all">
					<g id="footer">
						<path id="Google +" class="shp0" d="M6.67 2.14C6.77 2.2 6.87 2.29 6.99 2.4C7.11 2.52 7.22 2.67 7.33 2.85C7.44 3.01 7.53 3.21 7.61 3.44C7.68 3.66 7.71 3.93 7.71 4.23C7.7 4.79 7.58 5.23 7.35 5.56C7.24 5.72 7.12 5.87 6.99 6.01C6.85 6.14 6.7 6.28 6.54 6.42C6.45 6.52 6.37 6.63 6.29 6.75C6.2 6.88 6.15 7.02 6.15 7.19C6.15 7.35 6.2 7.48 6.29 7.59C6.37 7.69 6.45 7.78 6.52 7.85L7.04 8.28C7.36 8.55 7.64 8.85 7.88 9.17C8.11 9.5 8.23 9.93 8.24 10.46C8.24 11.21 7.91 11.87 7.26 12.45C6.59 13.05 5.61 13.36 4.34 13.38C3.27 13.37 2.47 13.14 1.95 12.69C1.41 12.26 1.15 11.76 1.15 11.17C1.15 10.88 1.23 10.56 1.41 10.21C1.58 9.86 1.88 9.55 2.32 9.28C2.81 9 3.33 8.81 3.87 8.71C4.41 8.63 4.86 8.58 5.21 8.57C5.1 8.43 5.01 8.27 4.92 8.1C4.82 7.94 4.77 7.75 4.77 7.52C4.77 7.38 4.79 7.27 4.83 7.17C4.86 7.08 4.89 6.99 4.92 6.91C4.75 6.93 4.58 6.94 4.43 6.94C3.62 6.93 3 6.67 2.58 6.16C2.13 5.69 1.91 5.13 1.91 4.5C1.91 3.74 2.22 3 2.85 2.38C3.29 2.02 3.74 1.72 4.2 1.61C4.67 1.52 5.1 1.4 5.5 1.4L8.55 1.4L7.61 2.14L6.67 2.14ZM5.13 6.52C5.54 6.5 5.87 6.36 6.14 6.08C6.27 5.88 6.35 5.68 6.39 5.47C6.41 5.26 6.42 5.09 6.42 4.95C6.42 4.34 6.27 3.72 5.96 3.1C5.81 2.8 5.62 2.56 5.39 2.37C5.15 2.2 4.87 2.1 4.56 2.09C4.15 2.1 3.8 2.27 3.53 2.6C3.3 2.94 3.19 3.33 3.2 3.75C3.2 4.31 3.36 4.9 3.68 5.5C3.84 5.78 4.04 6.02 4.29 6.22C4.54 6.42 4.82 6.52 5.13 6.52L5.13 6.52ZM7.26 11.06C7.26 10.67 7.13 10.32 6.88 10.03C6.61 9.76 6.2 9.42 5.63 9.01C5.53 9 5.42 9 5.29 9C5.21 8.99 5.01 9 4.69 9.03C4.37 9.07 4.05 9.14 3.72 9.25C3.64 9.28 3.54 9.32 3.39 9.38C3.25 9.45 3.11 9.54 2.97 9.66C2.82 9.79 2.71 9.94 2.61 10.13C2.5 10.33 2.44 10.56 2.44 10.84C2.44 11.39 2.68 11.84 3.17 12.19C3.63 12.54 4.26 12.72 5.06 12.73C5.78 12.72 6.33 12.56 6.71 12.25C7.07 11.94 7.26 11.54 7.26 11.06L7.26 11.06Z" />
					</g>
				</g>
			</g>
		</g>
	</g>
</svg>