<svg version="1.2" baseProfile="tiny-ps" xmlns="http://www.w3.org/2000/svg" viewBox="0 0 27 27" width="27" height="27">
	<title>Artboard 1 copy</title>
	<style>
		tspan { white-space:pre }
		.shp0 { fill: #ffffff } 
	</style>
	<g id="Artboard 1 copy">
		<path id="PaperPlane icon" class="shp0" d="M22.55 4.66L19.54 22.75L13.72 20.42L12.14 19.79L11.26 21.25L10.8 22.02L9.11 19.05L8.76 18.44L8.11 18.18L4.46 16.72L22.55 4.66M24.26 1.27C24.11 1.27 23.97 1.32 23.84 1.4L1.38 16.38C1.15 16.53 1.02 16.8 1.05 17.08C1.07 17.35 1.26 17.59 1.51 17.69L7.37 20.04L10.13 24.86C10.26 25.09 10.5 25.23 10.77 25.24C10.77 25.24 10.77 25.24 10.78 25.24C11.04 25.24 11.28 25.1 11.42 24.87L12.98 22.28L20.23 25.18C20.32 25.22 20.42 25.24 20.51 25.24C20.64 25.24 20.77 25.2 20.88 25.14C21.08 25.03 21.21 24.83 21.25 24.61L25 2.15C25.04 1.85 24.91 1.56 24.66 1.39C24.54 1.31 24.4 1.27 24.26 1.27L24.26 1.27ZM13.02 17.95C12.87 17.95 13.2 17.8 12.59 17.8C12.21 17.8 12.24 17.12 12.47 16.82L23.46 2.84C23.7 2.54 24.14 2.48 24.44 2.72C24.74 2.96 24.8 3.4 24.56 3.7L13.58 17.68C13.44 17.86 13.23 17.95 13.02 17.95Z" />
	</g>
</svg>